# MagicaVoxel @ Ephtracy

# group
o 

# material
mtllib Ship01.mtl
usemtl palette

# normals
vn -1 0 0
vn 1 0 0
vn 0 0 1
vn 0 0 -1
vn 0 -1 0
vn 0 1 0

# texcoords
vt 0.306641 0.5
vt 0.701172 0.5
vt 0.716797 0.5
vt 0.779297 0.5
vt 0.841797 0.5

# verts
v 0.1 2.1 -0.6
v 0.1 2.1 -0.9
v 0.1 2.2 -0.6
v 0.1 2.2 -0.9
v 0.2 2.1 -0.5
v 0.2 2.1 -0.6
v 0.2 2.2 -0.5
v 0.2 2.2 -0.6
v 0.3 2.1 -0.4
v 0.3 2.1 -0.5
v 0.3 2.2 -0.4
v 0.3 2.2 -0.5
v 0.4 2 -0.3
v 0.4 2 -0.9
v 0.4 2.1 -0.3
v 0.4 2.1 -0.4
v 0.4 2.1 -0.9
v 0.4 2.2 -0.3
v 0.4 2.2 -0.4
v 0.4 2.2 -0.6
v 0.4 2.3 -0.4
v 0.4 2.3 -0.6
v 0.5 2 -0.2
v 0.5 2 -0.3
v 0.5 2.1 -0.1
v 0.5 2.1 -0.2
v 0.5 2.1 -0.3
v 0.5 2.2 -0.1
v 0.5 2.2 -0.3
v 0.5 2.2 -0.4
v 0.5 2.2 -0.6
v 0.5 2.2 -0.9
v 0.5 2.3 -0.3
v 0.5 2.3 -0.4
v 0.5 2.3 -0.6
v 0.5 2.3 -0.7
v 0.5 2.4 -0.4
v 0.5 2.4 -0.6
v 0.5 2.4 -0.7
v 0.5 2.4 -0.8
v 0.5 2.5 -0.8
v 0.5 2.5 -0.9
v 0.6 2 -0.2
v 0.6 2 -0.3
v 0.6 2.1 -0.1
v 0.6 2.1 -0.2
v 0.6 2.1 -0.3
v 0.6 2.2 -0.1
v 0.6 2.2 -0.3
v 0.6 2.2 -0.4
v 0.6 2.2 -0.6
v 0.6 2.2 -0.9
v 0.6 2.3 -0.3
v 0.6 2.3 -0.4
v 0.6 2.3 -0.6
v 0.6 2.3 -0.7
v 0.6 2.4 -0.4
v 0.6 2.4 -0.6
v 0.6 2.4 -0.7
v 0.6 2.4 -0.8
v 0.6 2.5 -0.8
v 0.6 2.5 -0.9
v 0.7 2 -0.3
v 0.7 2 -0.9
v 0.7 2.1 -0.3
v 0.7 2.1 -0.4
v 0.7 2.1 -0.9
v 0.7 2.2 -0.3
v 0.7 2.2 -0.4
v 0.7 2.2 -0.6
v 0.7 2.3 -0.4
v 0.7 2.3 -0.6
v 0.8 2.1 -0.4
v 0.8 2.1 -0.5
v 0.8 2.2 -0.4
v 0.8 2.2 -0.5
v 0.9 2.1 -0.5
v 0.9 2.1 -0.6
v 0.9 2.2 -0.5
v 0.9 2.2 -0.6
v 1 2.1 -0.6
v 1 2.1 -0.9
v 1 2.2 -0.6
v 1 2.2 -0.9
v 0.5 2.1 -0.1
v 0.5 2.2 -0.1
v 0.6 2.1 -0.1
v 0.6 2.2 -0.1
v 0.5 2 -0.2
v 0.5 2.1 -0.2
v 0.6 2 -0.2
v 0.6 2.1 -0.2
v 0.4 2 -0.3
v 0.4 2.1 -0.3
v 0.4 2.2 -0.3
v 0.5 2 -0.3
v 0.5 2.1 -0.3
v 0.5 2.2 -0.3
v 0.5 2.3 -0.3
v 0.6 2 -0.3
v 0.6 2.1 -0.3
v 0.6 2.2 -0.3
v 0.6 2.3 -0.3
v 0.7 2 -0.3
v 0.7 2.1 -0.3
v 0.7 2.2 -0.3
v 0.3 2.1 -0.4
v 0.3 2.2 -0.4
v 0.4 2.1 -0.4
v 0.4 2.2 -0.4
v 0.4 2.3 -0.4
v 0.5 2.2 -0.4
v 0.5 2.3 -0.4
v 0.5 2.4 -0.4
v 0.6 2.2 -0.4
v 0.6 2.3 -0.4
v 0.6 2.4 -0.4
v 0.7 2.1 -0.4
v 0.7 2.2 -0.4
v 0.7 2.3 -0.4
v 0.8 2.1 -0.4
v 0.8 2.2 -0.4
v 0.2 2.1 -0.5
v 0.2 2.2 -0.5
v 0.3 2.1 -0.5
v 0.3 2.2 -0.5
v 0.8 2.1 -0.5
v 0.8 2.2 -0.5
v 0.9 2.1 -0.5
v 0.9 2.2 -0.5
v 0.1 2.1 -0.6
v 0.1 2.2 -0.6
v 0.2 2.1 -0.6
v 0.2 2.2 -0.6
v 0.9 2.1 -0.6
v 0.9 2.2 -0.6
v 1 2.1 -0.6
v 1 2.2 -0.6
v 0.5 2.3 -0.7
v 0.5 2.4 -0.7
v 0.6 2.3 -0.7
v 0.6 2.4 -0.7
v 0.5 2.4 -0.8
v 0.5 2.5 -0.8
v 0.6 2.4 -0.8
v 0.6 2.5 -0.8
v 0.4 2.2 -0.6
v 0.4 2.3 -0.6
v 0.5 2.2 -0.6
v 0.5 2.3 -0.6
v 0.5 2.4 -0.6
v 0.6 2.2 -0.6
v 0.6 2.3 -0.6
v 0.6 2.4 -0.6
v 0.7 2.2 -0.6
v 0.7 2.3 -0.6
v 0.1 2.1 -0.9
v 0.1 2.2 -0.9
v 0.4 2 -0.9
v 0.4 2.1 -0.9
v 0.5 2.1 -0.9
v 0.5 2.2 -0.9
v 0.5 2.5 -0.9
v 0.6 2.1 -0.9
v 0.6 2.2 -0.9
v 0.6 2.5 -0.9
v 0.7 2 -0.9
v 0.7 2.1 -0.9
v 1 2.1 -0.9
v 1 2.2 -0.9
v 0.5 2 -0.2
v 0.6 2 -0.2
v 0.4 2 -0.3
v 0.5 2 -0.3
v 0.6 2 -0.3
v 0.7 2 -0.3
v 0.5 2 -0.8
v 0.6 2 -0.8
v 0.4 2 -0.9
v 0.7 2 -0.9
v 0.5 2.1 -0.1
v 0.6 2.1 -0.1
v 0.5 2.1 -0.2
v 0.6 2.1 -0.2
v 0.3 2.1 -0.4
v 0.4 2.1 -0.4
v 0.7 2.1 -0.4
v 0.8 2.1 -0.4
v 0.2 2.1 -0.5
v 0.3 2.1 -0.5
v 0.8 2.1 -0.5
v 0.9 2.1 -0.5
v 0.1 2.1 -0.6
v 0.2 2.1 -0.6
v 0.9 2.1 -0.6
v 1 2.1 -0.6
v 0.1 2.1 -0.9
v 0.4 2.1 -0.9
v 0.7 2.1 -0.9
v 1 2.1 -0.9
v 0.5 2.2 -0.1
v 0.6 2.2 -0.1
v 0.4 2.2 -0.3
v 0.5 2.2 -0.3
v 0.6 2.2 -0.3
v 0.7 2.2 -0.3
v 0.3 2.2 -0.4
v 0.4 2.2 -0.4
v 0.5 2.2 -0.4
v 0.6 2.2 -0.4
v 0.7 2.2 -0.4
v 0.8 2.2 -0.4
v 0.2 2.2 -0.5
v 0.3 2.2 -0.5
v 0.8 2.2 -0.5
v 0.9 2.2 -0.5
v 0.1 2.2 -0.6
v 0.2 2.2 -0.6
v 0.4 2.2 -0.6
v 0.5 2.2 -0.6
v 0.6 2.2 -0.6
v 0.7 2.2 -0.6
v 0.9 2.2 -0.6
v 1 2.2 -0.6
v 0.1 2.2 -0.9
v 0.5 2.2 -0.9
v 0.6 2.2 -0.9
v 1 2.2 -0.9
v 0.5 2.3 -0.3
v 0.6 2.3 -0.3
v 0.4 2.3 -0.4
v 0.5 2.3 -0.4
v 0.6 2.3 -0.4
v 0.7 2.3 -0.4
v 0.4 2.3 -0.6
v 0.5 2.3 -0.6
v 0.6 2.3 -0.6
v 0.7 2.3 -0.6
v 0.5 2.3 -0.7
v 0.6 2.3 -0.7
v 0.5 2.4 -0.4
v 0.6 2.4 -0.4
v 0.5 2.4 -0.6
v 0.6 2.4 -0.6
v 0.5 2.4 -0.7
v 0.6 2.4 -0.7
v 0.5 2.4 -0.8
v 0.6 2.4 -0.8
v 0.5 2.5 -0.8
v 0.6 2.5 -0.8
v 0.5 2.5 -0.9
v 0.6 2.5 -0.9

# faces
f 3/3/1 2/3/1 1/3/1
f 4/3/1 2/3/1 3/3/1
f 7/3/1 6/3/1 5/3/1
f 8/3/1 6/3/1 7/3/1
f 11/3/1 10/3/1 9/3/1
f 12/3/1 10/3/1 11/3/1
f 15/4/1 14/4/1 13/4/1
f 16/4/1 14/4/1 15/4/1
f 17/4/1 14/4/1 16/4/1
f 18/3/1 16/3/1 15/3/1
f 19/3/1 16/3/1 18/3/1
f 21/3/1 20/3/1 19/3/1
f 22/3/1 20/3/1 21/3/1
f 26/4/1 24/4/1 23/4/1
f 27/4/1 24/4/1 26/4/1
f 28/4/1 26/4/1 25/4/1
f 28/4/1 27/4/1 26/4/1
f 29/4/1 27/4/1 28/4/1
f 33/2/1 30/2/1 29/2/1
f 34/2/1 30/2/1 33/2/1
f 35/4/1 32/4/1 31/4/1
f 36/4/1 32/4/1 35/4/1
f 37/2/1 35/2/1 34/2/1
f 38/2/1 35/2/1 37/2/1
f 39/4/1 32/4/1 36/4/1
f 40/4/1 32/4/1 39/4/1
f 41/4/1 32/4/1 40/4/1
f 42/4/1 32/4/1 41/4/1
f 43/4/2 44/4/2 46/4/2
f 46/4/2 44/4/2 47/4/2
f 45/4/2 46/4/2 48/4/2
f 46/4/2 47/4/2 48/4/2
f 48/4/2 47/4/2 49/4/2
f 49/2/2 50/2/2 53/2/2
f 53/2/2 50/2/2 54/2/2
f 51/4/2 52/4/2 55/4/2
f 55/4/2 52/4/2 56/4/2
f 54/2/2 55/2/2 57/2/2
f 57/2/2 55/2/2 58/2/2
f 56/4/2 52/4/2 59/4/2
f 59/4/2 52/4/2 60/4/2
f 60/4/2 52/4/2 61/4/2
f 61/4/2 52/4/2 62/4/2
f 63/4/2 64/4/2 65/4/2
f 65/4/2 64/4/2 66/4/2
f 66/4/2 64/4/2 67/4/2
f 65/3/2 66/3/2 68/3/2
f 68/3/2 66/3/2 69/3/2
f 69/3/2 70/3/2 71/3/2
f 71/3/2 70/3/2 72/3/2
f 73/3/2 74/3/2 75/3/2
f 75/3/2 74/3/2 76/3/2
f 77/3/2 78/3/2 79/3/2
f 79/3/2 78/3/2 80/3/2
f 81/3/2 82/3/2 83/3/2
f 83/3/2 82/3/2 84/3/2
f 87/4/3 86/4/3 85/4/3
f 88/4/3 86/4/3 87/4/3
f 91/4/3 90/4/3 89/4/3
f 92/4/3 90/4/3 91/4/3
f 96/4/3 94/4/3 93/4/3
f 97/3/3 95/3/3 94/3/3
f 97/4/3 94/4/3 96/4/3
f 98/3/3 95/3/3 97/3/3
f 102/2/3 99/2/3 98/2/3
f 103/2/3 99/2/3 102/2/3
f 104/4/3 101/4/3 100/4/3
f 105/3/3 102/3/3 101/3/3
f 105/4/3 101/4/3 104/4/3
f 106/3/3 102/3/3 105/3/3
f 109/3/3 108/3/3 107/3/3
f 110/3/3 108/3/3 109/3/3
f 112/3/3 111/3/3 110/3/3
f 113/3/3 111/3/3 112/3/3
f 116/2/3 114/2/3 113/2/3
f 117/2/3 114/2/3 116/2/3
f 119/3/3 116/3/3 115/3/3
f 120/3/3 116/3/3 119/3/3
f 121/3/3 119/3/3 118/3/3
f 122/3/3 119/3/3 121/3/3
f 125/3/3 124/3/3 123/3/3
f 126/3/3 124/3/3 125/3/3
f 129/3/3 128/3/3 127/3/3
f 130/3/3 128/3/3 129/3/3
f 133/3/3 132/3/3 131/3/3
f 134/3/3 132/3/3 133/3/3
f 137/3/3 136/3/3 135/3/3
f 138/3/3 136/3/3 137/3/3
f 141/4/3 140/4/3 139/4/3
f 142/4/3 140/4/3 141/4/3
f 145/4/3 144/4/3 143/4/3
f 146/4/3 144/4/3 145/4/3
f 147/3/4 148/3/4 149/3/4
f 149/3/4 148/3/4 150/3/4
f 150/2/4 151/2/4 153/2/4
f 153/2/4 151/2/4 154/2/4
f 152/3/4 153/3/4 155/3/4
f 155/3/4 153/3/4 156/3/4
f 157/3/4 158/3/4 160/3/4
f 160/3/4 158/3/4 161/3/4
f 159/4/4 160/4/4 161/4/4
f 161/3/4 158/3/4 162/3/4
f 159/4/4 161/4/4 164/4/4
f 161/5/4 162/5/4 164/5/4
f 162/4/4 163/4/4 165/4/4
f 164/5/4 162/5/4 165/5/4
f 165/4/4 163/4/4 166/4/4
f 159/4/4 164/4/4 167/4/4
f 164/3/4 165/3/4 168/3/4
f 167/4/4 164/4/4 168/4/4
f 168/3/4 165/3/4 169/3/4
f 169/3/4 165/3/4 170/3/4
f 174/4/5 172/4/5 171/4/5
f 175/4/5 172/4/5 174/4/5
f 177/4/5 174/4/5 173/4/5
f 177/1/5 175/1/5 174/1/5
f 178/4/5 176/4/5 175/4/5
f 178/1/5 175/1/5 177/1/5
f 179/4/5 177/4/5 173/4/5
f 179/4/5 178/4/5 177/4/5
f 180/4/5 176/4/5 178/4/5
f 180/4/5 178/4/5 179/4/5
f 183/4/5 182/4/5 181/4/5
f 184/4/5 182/4/5 183/4/5
f 190/3/5 186/3/5 185/3/5
f 191/3/5 188/3/5 187/3/5
f 194/3/5 190/3/5 189/3/5
f 195/3/5 192/3/5 191/3/5
f 197/3/5 194/3/5 193/3/5
f 198/3/5 186/3/5 190/3/5
f 198/3/5 194/3/5 197/3/5
f 198/3/5 190/3/5 194/3/5
f 199/3/5 196/3/5 195/3/5
f 199/3/5 191/3/5 187/3/5
f 199/3/5 195/3/5 191/3/5
f 200/3/5 196/3/5 199/3/5
f 201/4/6 202/4/6 204/4/6
f 204/4/6 202/4/6 205/4/6
f 203/3/6 204/3/6 208/3/6
f 208/3/6 204/3/6 209/3/6
f 205/3/6 206/3/6 210/3/6
f 210/3/6 206/3/6 211/3/6
f 207/3/6 208/3/6 214/3/6
f 211/3/6 212/3/6 215/3/6
f 213/3/6 214/3/6 218/3/6
f 214/3/6 208/3/6 219/3/6
f 218/3/6 214/3/6 219/3/6
f 215/3/6 216/3/6 222/3/6
f 211/3/6 215/3/6 222/3/6
f 222/3/6 216/3/6 223/3/6
f 219/3/6 220/3/6 225/3/6
f 217/3/6 218/3/6 225/3/6
f 218/3/6 219/3/6 225/3/6
f 225/3/6 220/3/6 226/3/6
f 223/3/6 224/3/6 227/3/6
f 222/3/6 223/3/6 227/3/6
f 221/3/6 222/3/6 227/3/6
f 227/3/6 224/3/6 228/3/6
f 229/2/6 230/2/6 232/2/6
f 232/2/6 230/2/6 233/2/6
f 231/3/6 232/3/6 235/3/6
f 235/3/6 232/3/6 236/3/6
f 233/3/6 234/3/6 237/3/6
f 237/3/6 234/3/6 238/3/6
f 236/4/6 237/4/6 239/4/6
f 239/4/6 237/4/6 240/4/6
f 241/2/6 242/2/6 243/2/6
f 243/2/6 242/2/6 244/2/6
f 245/4/6 246/4/6 247/4/6
f 247/4/6 246/4/6 248/4/6
f 249/4/6 250/4/6 251/4/6
f 251/4/6 250/4/6 252/4/6
